<svg width="24" height="24" viewBox="0 0 24 24" fill="none" xmlns="http://www.w3.org/2000/svg">
<path d="M12.1246 7.74646C11.3488 7.74646 10.1478 6.84824 8.88304 6.88071C7.21444 6.90235 5.684 7.8655 4.82312 9.39139C3.09075 12.454 4.37675 16.9776 6.06661 19.4667C6.89559 20.6787 7.87337 22.0423 9.17 21.999C10.4135 21.9449 10.8811 21.1765 12.3903 21.1765C13.8889 21.1765 14.314 21.999 15.6319 21.9665C16.971 21.9449 17.8212 20.7328 18.6396 19.5099C19.5855 18.1031 19.9787 16.7395 20 16.6638C19.9681 16.653 17.3961 15.6465 17.3642 12.6164C17.343 10.084 19.3942 8.87195 19.4899 8.81784C18.3208 7.0755 16.5246 6.88071 15.8976 6.83742C14.2609 6.70755 12.8898 7.74646 12.1246 7.74646ZM14.8879 5.19248C15.5787 4.34837 16.0357 3.16877 15.9082 2C14.9198 2.04329 13.7294 2.67096 13.0174 3.51508C12.3797 4.26179 11.827 5.46303 11.9758 6.61016C13.0705 6.69673 14.1971 6.03659 14.8879 5.19248Z" fill="#232426"/>
</svg>
