<svg width="24" height="24" viewBox="0 0 24 24" fill="none" xmlns="http://www.w3.org/2000/svg">
<path opacity="0.3" d="M2 5C2 3.89543 2.89543 3 4 3H16C17.1046 3 18 3.89543 18 5V6C18 6.55228 17.5523 7 17 7H3C2.44772 7 2 6.55228 2 6V5Z" fill="#1D1E20"/>
<path d="M20 9C21.1046 9 22 9.89543 22 11V19C22 20.1046 21.1046 21 20 21H4C2.89543 21 2 20.1046 2 19V11C2 9.89543 2.89543 9 4 9H20ZM16 13C15.4477 13 15 13.4477 15 14C15 14.5523 15.4477 15 16 15H18C18.5523 15 19 14.5523 19 14C19 13.4477 18.5523 13 18 13H16Z" fill="#1D1E20"/>
</svg>
