<svg width="24" height="24" viewBox="0 0 24 24" fill="none" xmlns="http://www.w3.org/2000/svg">
<path d="M13.5973 11.1354C14.6397 9.5399 15.6 8.06995 15.6 6.6C15.6 4.61177 13.9882 3 12 3C10.0118 3 8.4 4.61177 8.4 6.6C8.4 8.06995 9.36034 9.5399 10.4027 11.1354L10.4034 11.1364C10.4732 11.2434 10.5434 11.3508 10.6137 11.4589C10.3534 11.2611 10.1129 11.0729 9.88692 10.8961C8.64853 9.92697 7.84735 9.3 6.6 9.3C4.61177 9.3 3 10.9118 3 12.9C3 14.8882 4.61177 16.5 6.6 16.5C8.06995 16.5 9.5399 15.5397 11.1354 14.4973L11.1631 14.4792C11.0797 16.5325 10.3007 17.7943 9.44116 19.1868C9.33146 19.3645 9.22043 19.5443 9.10938 19.7282C8.76351 20.3009 9.18718 21 9.85623 21H14.1438C14.8128 21 15.2365 20.3009 14.8906 19.7282C14.7796 19.5443 14.6686 19.3645 14.5589 19.1868C13.6993 17.7943 12.9203 16.5325 12.8369 14.4792C12.8462 14.4853 12.8554 14.4913 12.8646 14.4973C14.4601 15.5397 15.93 16.5 17.4 16.5C19.3882 16.5 21 14.8882 21 12.9C21 10.9118 19.3882 9.3 17.4 9.3C16.1527 9.3 15.3514 9.92697 14.1131 10.8961C13.8871 11.0729 13.6466 11.2611 13.3863 11.4589C13.4568 11.3505 13.5273 11.2427 13.5973 11.1354Z" fill="#1D1E20"/>
</svg>
