<svg width="24" height="24" viewBox="0 0 24 24" fill="none" xmlns="http://www.w3.org/2000/svg">
<path d="M9.16147 3.81763C10.7235 2.25599 13.2557 2.25599 14.8177 3.81763L20.1712 9.17114C21.7333 10.7332 21.7333 13.2663 20.1712 14.8284L14.8177 20.1819C13.2556 21.7438 10.7235 21.7438 9.16147 20.1819L3.80795 14.8284C2.24586 13.2663 2.24586 10.7332 3.80795 9.17114L9.16147 3.81763ZM12.0003 9.00024C10.3435 9.00024 9.00034 10.3434 9.00034 12.0002C9.00047 13.657 10.3436 15.0002 12.0003 15.0002C13.657 15.0001 15.0002 13.6569 15.0003 12.0002C15.0003 10.3435 13.657 9.00043 12.0003 9.00024Z"/>
<circle opacity="0.3" cx="12" cy="12" r="3"/>
</svg>
