<svg width="24" height="24" viewBox="0 0 24 24" fill="none" xmlns="http://www.w3.org/2000/svg">
<path d="M8.29866 7.06768C8.81985 6.26995 9.3 5.53498 9.3 4.8C9.3 3.80589 8.49409 3 7.5 3C6.50589 3 5.7 3.80589 5.7 4.8C5.7 5.53498 6.18017 6.26995 6.70134 7.06768L6.7017 7.06822C6.73662 7.12168 6.77172 7.17542 6.80686 7.22946C6.67668 7.13055 6.55643 7.03646 6.44346 6.94803C5.82427 6.46348 5.42367 6.15 4.8 6.15C3.80589 6.15 3 6.9559 3 7.95C3 8.94409 3.80589 9.75 4.8 9.75C5.53498 9.75 6.26995 9.26985 7.06768 8.74866L7.08154 8.73961C7.03983 9.76624 6.65035 10.3971 6.22058 11.0934C6.16573 11.1823 6.11022 11.2722 6.05469 11.3641C5.88176 11.6504 6.09359 12 6.42811 12H8.5719C8.90638 12 9.11824 11.6504 8.94531 11.3641C8.88978 11.2722 8.83429 11.1823 8.77944 11.0934C8.34964 10.3971 7.96017 9.76624 7.91846 8.73961C7.92309 8.74263 7.92772 8.74565 7.93231 8.74866C8.73003 9.26985 9.46501 9.75 10.2 9.75C11.1941 9.75 12 8.94409 12 7.95C12 6.9559 11.1941 6.15 10.2 6.15C9.57634 6.15 9.17571 6.46348 8.55655 6.94803C8.44356 7.03646 8.32332 7.13055 8.19314 7.22946C8.22842 7.17523 8.26365 7.12133 8.29866 7.06768Z" fill="#1D1E20"/>
<path d="M3 15.3803C3 14.0657 4.10809 13 5.475 13C6.31207 13 7.05207 13.3996 7.5 14.0114C7.94793 13.3996 8.68791 13 9.525 13C10.8919 13 12 14.0657 12 15.3803C12 18.6261 7.49995 21 7.49995 21C7.49995 21 3 18.6261 3 15.3803Z" fill="#FF0B38"/>
<path d="M16.0281 9.38284C15.6034 9.6795 15.0632 9.85714 14.475 9.85714C13.1081 9.85714 12 8.89774 12 7.71429C12 6.19368 13.5862 5.1047 14.9898 4.14105C15.5642 3.74671 16.108 3.37335 16.5 3C16.8921 3.37335 17.4359 3.74669 18.0102 4.14102C19.4138 5.10468 21 6.19367 21 7.71429C21 8.89774 19.8919 9.85714 18.525 9.85714C17.9368 9.85714 17.3966 9.6795 16.9719 9.38284C17.0999 10.0881 17.426 10.5913 17.7794 11.1366C17.8342 11.2212 17.8898 11.3068 17.9453 11.3944C18.1182 11.6671 17.9064 12 17.5719 12H15.4281C15.0936 12 14.8818 11.6671 15.0547 11.3944C15.1102 11.3068 15.1657 11.2212 15.2206 11.1366C15.574 10.5913 15.9001 10.0881 16.0281 9.38284Z" fill="#626469"/>
<path d="M15.7191 12.4761C16.1195 11.9757 16.8805 11.9757 17.2809 12.4761L20.4002 16.3753C20.6924 16.7405 20.6924 17.2595 20.4002 17.6247L17.2809 21.5239C16.8805 22.0243 16.1195 22.0243 15.7191 21.5239L12.5998 17.6247C12.3076 17.2595 12.3076 16.7405 12.5998 16.3753L15.7191 12.4761Z" fill="#9FA2A8"/>
</svg>
