<svg width="24" height="24" viewBox="0 0 24 24" fill="none" xmlns="http://www.w3.org/2000/svg">
<mask id="mask0_96_5554" style="mask-type:luminance" maskUnits="userSpaceOnUse" x="3" y="3" width="18" height="19">
<path d="M20.8271 10.4869H12.1917V14.0211H17.1537C17.0739 14.5213 16.8948 15.0133 16.6325 15.462C16.332 15.976 15.9605 16.3673 15.5797 16.6654C14.4391 17.5581 13.1092 17.7406 12.1857 17.7406C9.85268 17.7406 7.85927 16.2005 7.08759 14.1078C7.05644 14.0319 7.03576 13.9535 7.01058 13.8759C6.84006 13.3433 6.74688 12.7792 6.74688 12.1929C6.74688 11.5827 6.84778 10.9987 7.03175 10.447C7.75739 8.27135 9.79574 6.64634 12.1874 6.64634C12.6684 6.64634 13.1317 6.70482 13.571 6.82147C14.5749 7.08806 15.2851 7.61311 15.7203 8.02842L18.3459 5.40208C16.7488 3.90634 14.6667 3 12.183 3C10.1975 2.99996 8.36438 3.63181 6.8622 4.69965C5.64398 5.56565 4.64487 6.7251 3.97059 8.07168C3.34342 9.32024 3 10.7039 3 12.1915C3 13.6793 3.34394 15.0773 3.97112 16.3143V16.3226C4.63357 17.6359 5.60231 18.7666 6.7797 19.6286C7.80828 20.3817 9.65263 21.3847 12.183 21.3847C13.6382 21.3847 14.9278 21.1167 16.0652 20.6145C16.8857 20.2523 17.6126 19.7798 18.2708 19.1725C19.1405 18.3701 19.8216 17.3777 20.2864 16.2358C20.7513 15.0939 21 13.8027 21 12.4027C21 11.7508 20.9359 11.0886 20.8271 10.4869V10.4869Z" fill="white"/>
</mask>
<g mask="url(#mask0_96_5554)">
<g filter="url(#filter0_f_96_5554)">
<path d="M2.86755 12.254C2.8771 13.7182 3.2856 15.229 3.90394 16.4486V16.4569C4.35072 17.3426 4.96135 18.0423 5.65683 18.7355L9.85739 17.17C9.06267 16.7577 8.9414 16.505 8.37172 16.044C7.78955 15.4444 7.35566 14.7561 7.08544 13.949H7.07456L7.08544 13.9406C6.90767 13.4077 6.89014 12.8419 6.88358 12.254H2.86755Z" fill="url(#paint0_radial_96_5554)"/>
</g>
<g filter="url(#filter1_f_96_5554)">
<path d="M12.1917 2.93314C11.7766 4.4229 11.9353 5.871 12.1917 6.71357C12.6712 6.71394 13.133 6.77231 13.571 6.88859C14.5749 7.15518 15.285 7.68025 15.7202 8.09556L18.4131 5.40212C16.8178 3.90816 14.898 2.93549 12.1917 2.93314Z" fill="url(#paint1_radial_96_5554)"/>
</g>
<g filter="url(#filter2_f_96_5554)">
<path d="M12.1827 2.92136C10.1463 2.92131 8.26609 3.56938 6.72535 4.66464C6.15328 5.07132 5.62829 5.54109 5.16083 6.06349C5.03836 7.23694 6.07757 8.67922 8.13551 8.66729C9.13401 7.48098 10.6108 6.71344 12.2544 6.71344C12.2559 6.71344 12.2574 6.71357 12.2589 6.71357L12.1917 2.92162C12.1887 2.92162 12.1858 2.92136 12.1827 2.92136Z" fill="url(#paint2_radial_96_5554)"/>
</g>
<g filter="url(#filter3_f_96_5554)">
<path d="M18.9043 12.6786L17.0866 13.954C17.0068 14.4542 16.8276 14.9462 16.5653 15.3949C16.2648 15.9089 15.8933 16.3003 15.5125 16.5983C14.3742 17.4892 13.0479 17.6726 12.1246 17.6733C11.1703 19.3335 11.003 20.165 12.1917 21.5049C13.6627 21.5038 14.9668 21.2326 16.1171 20.7247C16.9486 20.3576 17.6852 19.8788 18.3522 19.2633C19.2336 18.4502 19.9239 17.4444 20.395 16.2872C20.8661 15.13 21.1181 13.8215 21.1181 12.4028L18.9043 12.6786Z" fill="url(#paint3_radial_96_5554)"/>
</g>
<g filter="url(#filter4_f_96_5554)">
<path d="M12.0575 10.3527V14.1554H20.8029C20.8798 13.6346 21.1342 12.9607 21.1342 12.4028C21.1342 11.7508 21.0701 10.9544 20.9614 10.3527H12.0575Z" fill="#3086FF"/>
</g>
<g filter="url(#filter5_f_96_5554)">
<path d="M5.20253 5.92923C4.66285 6.53233 4.20179 7.20738 3.83623 7.93743C3.20906 9.18599 2.86566 10.7039 2.86566 12.1915C2.86566 12.2125 2.86736 12.233 2.8675 12.254C3.14525 12.7979 6.70414 12.6937 6.88352 12.254C6.8833 12.2334 6.88104 12.2134 6.88104 12.1929C6.88104 11.5827 6.98196 11.1329 7.16593 10.5813C7.39288 9.90086 7.74823 9.27427 8.20262 8.7344C8.30562 8.60009 8.58038 8.31133 8.66054 8.13814C8.69107 8.07217 8.6051 8.03513 8.60029 8.01191C8.59492 7.98594 8.47965 8.00683 8.45383 7.98748C8.37184 7.92606 8.20947 7.89398 8.11088 7.86547C7.90015 7.80452 7.55091 7.67013 7.35693 7.53081C6.74377 7.09044 5.78688 6.56442 5.20253 5.92923Z" fill="url(#paint4_radial_96_5554)"/>
</g>
<g filter="url(#filter6_f_96_5554)">
<path d="M7.37014 8.01452C8.792 8.89421 9.20089 7.57048 10.1462 7.15626L8.50179 3.67325C7.89687 3.93293 7.32535 4.25556 6.79506 4.63252C6.00312 5.19548 5.30378 5.88246 4.72607 6.66425L7.37014 8.01452Z" fill="url(#paint5_radial_96_5554)"/>
</g>
<g filter="url(#filter7_f_96_5554)">
<path d="M7.94883 16.9009C6.04017 17.6047 5.74136 17.6299 5.56567 18.8381C5.90141 19.1727 6.26214 19.4822 6.64546 19.7629C7.67404 20.516 9.65259 21.5189 12.183 21.5189C12.1859 21.5189 12.1888 21.5187 12.1918 21.5187V17.6062C12.1898 17.6062 12.1876 17.6063 12.1857 17.6063C11.2382 17.6063 10.481 17.3521 9.70466 16.9101C9.51325 16.8011 9.16597 17.0938 8.98944 16.9629C8.74596 16.7825 8.16001 17.1184 7.94883 16.9009Z" fill="url(#paint6_radial_96_5554)"/>
</g>
<g opacity="0.5" filter="url(#filter8_f_96_5554)">
<path d="M11.074 17.483V21.4509C11.428 21.4932 11.7965 21.5189 12.183 21.5189C12.5705 21.5189 12.9453 21.4986 13.3096 21.4612V17.5097C12.9014 17.581 12.5169 17.6063 12.1857 17.6063C11.8043 17.6063 11.4334 17.561 11.074 17.483Z" fill="url(#paint7_linear_96_5554)"/>
</g>
</g>
<defs>
<filter id="filter0_f_96_5554" x="2.836" y="12.2224" width="7.05298" height="6.54462" filterUnits="userSpaceOnUse" color-interpolation-filters="sRGB">
<feFlood flood-opacity="0" result="BackgroundImageFix"/>
<feBlend mode="normal" in="SourceGraphic" in2="BackgroundImageFix" result="shape"/>
<feGaussianBlur stdDeviation="0.0157773" result="effect1_foregroundBlur_96_5554"/>
</filter>
<filter id="filter1_f_96_5554" x="11.9049" y="2.90158" width="6.53973" height="5.22552" filterUnits="userSpaceOnUse" color-interpolation-filters="sRGB">
<feFlood flood-opacity="0" result="BackgroundImageFix"/>
<feBlend mode="normal" in="SourceGraphic" in2="BackgroundImageFix" result="shape"/>
<feGaussianBlur stdDeviation="0.0157773" result="effect1_foregroundBlur_96_5554"/>
</filter>
<filter id="filter2_f_96_5554" x="5.11957" y="2.8898" width="7.17084" height="5.80911" filterUnits="userSpaceOnUse" color-interpolation-filters="sRGB">
<feFlood flood-opacity="0" result="BackgroundImageFix"/>
<feBlend mode="normal" in="SourceGraphic" in2="BackgroundImageFix" result="shape"/>
<feGaussianBlur stdDeviation="0.0157773" result="effect1_foregroundBlur_96_5554"/>
</filter>
<filter id="filter3_f_96_5554" x="11.3225" y="12.3712" width="9.82709" height="9.16522" filterUnits="userSpaceOnUse" color-interpolation-filters="sRGB">
<feFlood flood-opacity="0" result="BackgroundImageFix"/>
<feBlend mode="normal" in="SourceGraphic" in2="BackgroundImageFix" result="shape"/>
<feGaussianBlur stdDeviation="0.0157773" result="effect1_foregroundBlur_96_5554"/>
</filter>
<filter id="filter4_f_96_5554" x="12.0259" y="10.3211" width="9.13983" height="3.86581" filterUnits="userSpaceOnUse" color-interpolation-filters="sRGB">
<feFlood flood-opacity="0" result="BackgroundImageFix"/>
<feBlend mode="normal" in="SourceGraphic" in2="BackgroundImageFix" result="shape"/>
<feGaussianBlur stdDeviation="0.0157773" result="effect1_foregroundBlur_96_5554"/>
</filter>
<filter id="filter5_f_96_5554" x="2.83411" y="5.89768" width="5.8645" height="6.75775" filterUnits="userSpaceOnUse" color-interpolation-filters="sRGB">
<feFlood flood-opacity="0" result="BackgroundImageFix"/>
<feBlend mode="normal" in="SourceGraphic" in2="BackgroundImageFix" result="shape"/>
<feGaussianBlur stdDeviation="0.0157773" result="effect1_foregroundBlur_96_5554"/>
</filter>
<filter id="filter6_f_96_5554" x="4.50423" y="3.45141" width="5.86385" height="5.08062" filterUnits="userSpaceOnUse" color-interpolation-filters="sRGB">
<feFlood flood-opacity="0" result="BackgroundImageFix"/>
<feBlend mode="normal" in="SourceGraphic" in2="BackgroundImageFix" result="shape"/>
<feGaussianBlur stdDeviation="0.110921" result="effect1_foregroundBlur_96_5554"/>
</filter>
<filter id="filter7_f_96_5554" x="5.53412" y="16.8537" width="6.68921" height="4.69678" filterUnits="userSpaceOnUse" color-interpolation-filters="sRGB">
<feFlood flood-opacity="0" result="BackgroundImageFix"/>
<feBlend mode="normal" in="SourceGraphic" in2="BackgroundImageFix" result="shape"/>
<feGaussianBlur stdDeviation="0.0157773" result="effect1_foregroundBlur_96_5554"/>
</filter>
<filter id="filter8_f_96_5554" x="11.0424" y="17.4514" width="2.2987" height="4.09906" filterUnits="userSpaceOnUse" color-interpolation-filters="sRGB">
<feFlood flood-opacity="0" result="BackgroundImageFix"/>
<feBlend mode="normal" in="SourceGraphic" in2="BackgroundImageFix" result="shape"/>
<feGaussianBlur stdDeviation="0.0157773" result="effect1_foregroundBlur_96_5554"/>
</filter>
<radialGradient id="paint0_radial_96_5554" cx="0" cy="0" r="1" gradientUnits="userSpaceOnUse" gradientTransform="translate(9.7733 18.5975) rotate(-92.3395) scale(9.16313 13.4595)">
<stop offset="0.141612" stop-color="#1ABD4D"/>
<stop offset="0.247515" stop-color="#6EC30D"/>
<stop offset="0.311547" stop-color="#8AC502"/>
<stop offset="0.366013" stop-color="#A2C600"/>
<stop offset="0.445673" stop-color="#C8C903"/>
<stop offset="0.540305" stop-color="#EBCB03"/>
<stop offset="0.615636" stop-color="#F7CD07"/>
<stop offset="0.699345" stop-color="#FDCD04"/>
<stop offset="0.771242" stop-color="#FDCE05"/>
<stop offset="0.860566" stop-color="#FFCE0A"/>
</radialGradient>
<radialGradient id="paint1_radial_96_5554" cx="0" cy="0" r="1" gradientTransform="matrix(6.35225 -1.5593e-05 -8.92834e-06 8.20359 18.1612 7.90067)" gradientUnits="userSpaceOnUse">
<stop offset="0.408458" stop-color="#FB4E5A"/>
<stop offset="1" stop-color="#FF4540"/>
</radialGradient>
<radialGradient id="paint2_radial_96_5554" cx="0" cy="0" r="1" gradientUnits="userSpaceOnUse" gradientTransform="translate(14.6922 1.73386) rotate(151.02) scale(10.1739 13.8059)">
<stop offset="0.231273" stop-color="#FF4541"/>
<stop offset="0.311547" stop-color="#FF4540"/>
<stop offset="0.457516" stop-color="#FF4640"/>
<stop offset="0.540305" stop-color="#FF473F"/>
<stop offset="0.699346" stop-color="#FF5138"/>
<stop offset="0.771242" stop-color="#FF5B33"/>
<stop offset="0.860566" stop-color="#FF6C29"/>
<stop offset="1" stop-color="#FF8C18"/>
</radialGradient>
<radialGradient id="paint3_radial_96_5554" cx="0" cy="0" r="1" gradientUnits="userSpaceOnUse" gradientTransform="translate(12.324 20.315) rotate(-127.454) scale(26.5411 9.79697)">
<stop offset="0.131546" stop-color="#0CBA65"/>
<stop offset="0.209784" stop-color="#0BB86D"/>
<stop offset="0.297297" stop-color="#09B479"/>
<stop offset="0.396257" stop-color="#08AD93"/>
<stop offset="0.477124" stop-color="#0AA6A9"/>
<stop offset="0.568425" stop-color="#0D9CC6"/>
<stop offset="0.667385" stop-color="#1893DD"/>
<stop offset="0.768727" stop-color="#258BF1"/>
<stop offset="0.858506" stop-color="#3086FF"/>
</radialGradient>
<radialGradient id="paint4_radial_96_5554" cx="0" cy="0" r="1" gradientUnits="userSpaceOnUse" gradientTransform="translate(11.403 4.65772) rotate(96.6178) scale(9.91116 13.7039)">
<stop offset="0.366013" stop-color="#FF4E3A"/>
<stop offset="0.457516" stop-color="#FF8A1B"/>
<stop offset="0.540305" stop-color="#FFA312"/>
<stop offset="0.615636" stop-color="#FFB60C"/>
<stop offset="0.771242" stop-color="#FFCD0A"/>
<stop offset="0.860566" stop-color="#FECF0A"/>
<stop offset="0.915033" stop-color="#FECF08"/>
<stop offset="1" stop-color="#FDCD01"/>
</radialGradient>
<radialGradient id="paint5_radial_96_5554" cx="0" cy="0" r="1" gradientUnits="userSpaceOnUse" gradientTransform="translate(9.79677 4.5556) rotate(132.119) scale(4.92279 13.8849)">
<stop offset="0.315904" stop-color="#FF4C3C"/>
<stop offset="0.603818" stop-color="#FF692C"/>
<stop offset="0.726837" stop-color="#FF7825"/>
<stop offset="0.884534" stop-color="#FF8D1B"/>
<stop offset="1" stop-color="#FF9F13"/>
</radialGradient>
<radialGradient id="paint6_radial_96_5554" cx="0" cy="0" r="1" gradientUnits="userSpaceOnUse" gradientTransform="translate(14.6922 22.6506) rotate(-151.02) scale(10.1739 13.8059)">
<stop offset="0.231273" stop-color="#0FBC5F"/>
<stop offset="0.311547" stop-color="#0FBC5F"/>
<stop offset="0.366013" stop-color="#0FBC5E"/>
<stop offset="0.457516" stop-color="#0FBC5D"/>
<stop offset="0.540305" stop-color="#12BC58"/>
<stop offset="0.699346" stop-color="#28BF3C"/>
<stop offset="0.771242" stop-color="#38C02B"/>
<stop offset="0.860566" stop-color="#52C218"/>
<stop offset="0.915033" stop-color="#67C30F"/>
<stop offset="1" stop-color="#86C504"/>
</radialGradient>
<linearGradient id="paint7_linear_96_5554" x1="11.074" y1="19.5009" x2="13.3096" y2="19.5009" gradientUnits="userSpaceOnUse">
<stop stop-color="#0FBC5C"/>
<stop offset="1" stop-color="#0CBA65"/>
</linearGradient>
</defs>
</svg>
