<svg width="24" height="24" viewBox="0 0 24 24" fill="none" xmlns="http://www.w3.org/2000/svg">
<path d="M4.93851 3.37531C5.33883 2.8749 6.09992 2.8749 6.50024 3.3753L8.21962 5.52452C8.51179 5.88974 8.51179 6.40869 8.21962 6.77391L6.50024 8.92313C6.09992 9.42354 5.33883 9.42354 4.93851 8.92313L3.21913 6.77391C2.92696 6.4087 2.92696 5.88974 3.21913 5.52452L4.93851 3.37531Z" fill="#1D1E20"/>
<path d="M4.93851 15.3753C5.33883 14.8749 6.09992 14.8749 6.50024 15.3753L8.21962 17.5245C8.51179 17.8897 8.51179 18.4087 8.21962 18.7739L6.50024 20.9231C6.09992 21.4235 5.33883 21.4235 4.93851 20.9231L3.21913 18.7739C2.92696 18.4087 2.92696 17.8897 3.21913 17.5245L4.93851 15.3753Z" fill="#1D1E20"/>
<path d="M11 6L20 6" stroke="#9FA2A8" stroke-width="2" stroke-linecap="round"/>
<path d="M11 18L20 18" stroke="#9FA2A8" stroke-width="2" stroke-linecap="round"/>
<path d="M7 12L20 12" stroke="#9FA2A8" stroke-width="2" stroke-linecap="round"/>
</svg>
