<svg width="24" height="24" viewBox="0 0 24 24" fill="none" xmlns="http://www.w3.org/2000/svg">
<path d="M5 12C5 8.13401 8.13401 5 12 5C15.866 5 19 8.13401 19 12V17.037C19 17.5689 18.5689 18 18.037 18H5.96296C5.43113 18 5 17.5689 5 17.037V12Z" fill="#1D1E20"/>
<path d="M10 3H14" stroke="#1D1E20" stroke-width="2" stroke-linecap="round"/>
<path opacity="0.5" d="M12.6439 19C13.9451 19 15.0415 20.2012 14.1213 21.1213C13.5587 21.6839 12.7956 22 12 22C11.2044 22 10.4413 21.6839 9.87868 21.1213C8.95855 20.2012 10.0549 19 11.3561 19H12H12.6439Z" fill="#1D1E20"/>
</svg>
