<svg width="24" height="24" viewBox="0 0 24 24" fill="none" xmlns="http://www.w3.org/2000/svg">
<path d="M12 3C13.2708 3 14.4531 3.22594 15.5469 3.67782C16.6408 4.12971 17.5898 4.76569 18.3941 5.58577C19.2145 6.40586 19.8499 7.35983 20.3003 8.4477C20.7668 9.51883 21 10.6904 21 11.9623C21 13.2176 20.7668 14.3975 20.3003 15.5021C19.8499 16.6067 19.2145 17.569 18.3941 18.3891C17.5898 19.2092 16.6408 19.8536 15.5469 20.3222C14.4531 20.7741 13.2708 21 12 21C10.7292 21 9.54692 20.7741 8.45308 20.3222C7.37534 19.8536 6.42627 19.2092 5.6059 18.3891C4.78552 17.569 4.14209 16.6151 3.6756 15.5272C3.2252 14.4226 3 13.2343 3 11.9623C3 10.6904 3.2252 9.51046 3.6756 8.42259C4.14209 7.33473 4.78552 6.38912 5.6059 5.58577C6.42627 4.76569 7.37534 4.12971 8.45308 3.67782C9.54692 3.22594 10.7292 3 12 3Z" fill="#214FF6"/>
<path d="M15.478 9.21027C11.9427 4.82607 8.06488 6.91263 6.56786 8.50393C6.71195 7.79759 9.59393 4.77735 12.5239 5.4837C15.454 6.19004 16.6667 8.38838 16.8229 10.0628C16.991 11.8652 16.1745 13.8929 14.5413 14.4713C13.3309 14.9 12.3398 14.4226 11.9956 14.1303C14.2051 14.2667 15.0137 12.9531 15.1417 12.2792C14.9322 12.947 14.3497 13.3823 13.9094 13.6036C13.7517 13.6828 13.5807 13.5605 13.5807 13.384C13.5807 13.2886 13.6338 13.2012 13.7153 13.1514C15.3941 12.1226 15.1651 9.96442 14.8295 8.99106C16.5203 11.6021 15.0217 13.6026 14.061 14.2765C14.6134 14.1141 15.7854 13.3265 16.0544 11.4754C16.3234 7.83168 13.6047 6.56351 12.2117 6.3849C14.1907 6.93048 15.2138 8.49581 15.478 9.21027Z" fill="white"/>
<path d="M9.35644 8.39643C4.95094 11.8778 6.91596 15.8585 8.44916 17.4136C7.75629 17.251 4.8473 14.2581 5.61297 11.304C6.37864 8.34988 8.5744 7.17188 10.2286 7.05285C12.0093 6.92472 13.9889 7.80021 14.5204 9.46958C14.9143 10.7069 14.4202 11.7005 14.124 12.0427C14.3107 9.80568 13.035 8.95506 12.3737 8.80937C13.0319 9.03915 13.4485 9.64716 13.6546 10.0998C13.7265 10.2577 13.6016 10.4222 13.4282 10.4181C13.3328 10.4158 13.247 10.3601 13.2001 10.2769C12.2259 8.54977 10.0926 8.73134 9.12499 9.04873C11.7389 7.3958 13.6754 8.96219 14.3169 9.952C14.1699 9.38815 13.4214 8.18139 11.603 7.86521C8.01749 7.50695 6.703 10.2336 6.49394 11.6417C7.07863 9.64806 8.64589 8.6475 9.35644 8.39643Z" fill="white"/>
<path d="M8.46567 14.7776C12.0419 19.1275 15.9 17.0036 17.382 15.3979C17.2446 16.1056 14.3911 19.1535 11.4545 18.4755C8.51803 17.7975 7.28469 15.6109 7.1128 13.9381C6.92778 12.1374 7.72526 10.1019 9.35288 9.50775C10.5592 9.06741 11.5548 9.53521 11.9017 9.82415C9.69102 9.70909 8.89483 11.0305 8.77307 11.7056C8.97631 11.0357 9.55474 10.5948 9.99293 10.3694C10.1499 10.2886 10.322 10.4092 10.3237 10.5857C10.3246 10.6812 10.2723 10.769 10.1913 10.8197C8.52219 11.8646 8.77149 14.0205 9.11614 14.9905C7.40095 12.3959 8.88073 10.3811 9.83502 9.69796C9.28419 9.86566 8.11963 10.6645 7.86803 12.5181C7.63327 16.1643 10.3637 17.4062 11.7583 17.5713C9.77429 17.0449 8.73654 15.4895 8.46567 14.7776Z" fill="white"/>
<path d="M14.7185 15.4076C19.0641 11.8506 17.0318 7.90444 15.4724 6.37597C16.168 6.52667 19.1273 9.4689 18.412 12.4358C17.6966 15.4027 15.5212 16.6184 13.8692 16.766C12.0909 16.9249 10.0968 16.0837 9.53704 14.4237C9.12217 13.1934 9.59928 12.1914 9.8897 11.8442C9.74095 14.084 11.031 14.9125 11.6946 15.0468C11.0327 14.8284 10.6058 14.2276 10.392 13.7786C10.3175 13.622 10.4395 13.4553 10.613 13.4565C10.7084 13.4571 10.7951 13.5114 10.8434 13.5937C11.8468 15.3038 13.9767 15.0854 14.9388 14.7513C12.3534 16.4492 10.3905 14.9164 9.73227 13.9378C9.88881 14.4991 10.6578 15.6927 12.4812 15.9775C16.0723 16.2738 17.3403 13.5249 17.5254 12.1133C16.9747 14.1168 15.4246 15.1442 14.7185 15.4076Z" fill="white"/>
</svg>
