<svg width="24" height="24" viewBox="0 0 24 24" fill="none" xmlns="http://www.w3.org/2000/svg">
<path d="M11.161 16.0565C10.4061 16.6168 9.44564 16.9524 8.4 16.9524C5.96994 16.9524 4 15.1402 4 12.9048C4 10.0325 6.81989 7.97555 9.31523 6.15532C10.3364 5.41045 11.3031 4.70522 12.0001 4C12.697 4.70521 13.6638 5.41042 14.6849 6.15526C17.1802 7.97551 20 10.0325 20 12.9048C20 15.1402 18.0301 16.9524 15.6 16.9524C14.5544 16.9524 13.5939 16.6168 12.839 16.0565C13.0664 17.3886 13.6462 18.3391 14.2746 19.3691C14.372 19.5289 14.4707 19.6907 14.5694 19.8561C14.8769 20.3712 14.5002 21 13.9056 21H10.0944C9.49972 21 9.12312 20.3712 9.43056 19.8561C9.52927 19.6907 9.62796 19.5289 9.72548 19.3691C10.3538 18.3391 10.9336 17.3886 11.161 16.0565Z" fill="#1D1E20"/>
</svg>
