<svg width="24" height="24" viewBox="0 0 24 24" fill="none" xmlns="http://www.w3.org/2000/svg">
<path opacity="0.3" d="M7 5.43961C7 4.17751 8.15465 3.23093 9.39223 3.47845L12 4L14.6078 3.47845C15.8454 3.23093 17 4.17751 17 5.43961V12H7V5.43961Z" fill="#1D1E20"/>
<circle cx="12" cy="13" r="8" fill="#1D1E20"/>
<path d="M11.3209 10.4514C11.5616 9.84953 12.4384 9.84953 12.6791 10.4514L13.193 11.7359L14.5772 12.3576C15.1409 12.6108 15.1409 13.3892 14.5772 13.6424L13.193 14.2641L12.6791 15.5486C12.4384 16.1505 11.5616 16.1505 11.3209 15.5486L10.807 14.2641L9.42281 13.6424C8.85906 13.3892 8.85906 12.6108 9.42281 12.3576L10.807 11.7359L11.3209 10.4514Z" fill="white"/>
<circle cx="12" cy="13" r="5.5" stroke="white"/>
</svg>
